<svg width="20" height="18" viewBox="0 0 20 18" fill="none" xmlns="http://www.w3.org/2000/svg">
    <path d="M18.0666 10.2765L10.6323 17.6395C10.2815 17.9869 9.71637 17.9869 9.36561 17.6395L1.86832 10.2142C1.28598 9.6467 0.827214 8.96499 0.52082 8.21179C0.213908 7.45733 0.066536 6.64749 0.0879835 5.83326C0.109431 5.01904 0.299234 4.21808 0.645439 3.48082C0.991645 2.74356 1.48675 2.08596 2.09959 1.54945C2.71242 1.01293 3.42971 0.609117 4.20627 0.363431C4.98284 0.117746 5.80186 0.0355127 6.61177 0.121909C7.42168 0.208306 8.20492 0.461461 8.91219 0.865433C9.30626 1.09052 9.67199 1.35971 10.0027 1.66706C10.3332 1.36325 10.6982 1.09737 11.091 0.875225C11.7978 0.47554 12.5795 0.226041 13.3871 0.142345C14.1947 0.0586478 15.0109 0.142555 15.7847 0.388813C16.5584 0.635072 17.2729 1.03838 17.8836 1.5735C18.4943 2.10862 18.988 2.76403 19.3337 3.4987C19.6794 4.23338 19.8698 5.03151 19.8929 5.84315C19.916 6.65478 19.7713 7.46244 19.4679 8.21559C19.1645 8.96873 18.7089 9.65114 18.1296 10.2201C18.1093 10.2401 18.0883 10.2588 18.0666 10.2765Z" fill="#93806E"/>
</svg>
